<?xml version="1.0" encoding="UTF-8" standalone="no"?>
<!DOCTYPE svg PUBLIC "-//W3C//DTD SVG 1.1//EN" "http://www.w3.org/Graphics/SVG/1.1/DTD/svg11.dtd">
<svg width="100%" height="100%" viewBox="0 0 275 159" version="1.1" xmlns="http://www.w3.org/2000/svg" fill="white" xmlns:xlink="http://www.w3.org/1999/xlink" xml:space="preserve" xmlns:serif="http://www.serif.com/" style="fill-rule:evenodd;clip-rule:evenodd;stroke-linejoin:round;stroke-miterlimit:2;">
    <g transform="matrix(1,0,0,1,-304.741,-198.245)">
        <g transform="matrix(0.365808,0,0,0.365808,39.6008,41.9629)">
            <path d="M1258.84,799.394C1237.08,801.326 1215.02,800.001 1193.3,798.186C1132.72,793.123 1072.69,779.34 1014.2,763.24C953.938,746.651 894.534,725.737 837.983,699.04C816.529,688.91 795.706,677.447 775.876,664.415C761.24,654.797 746.189,644.406 739.47,627.252C734.626,614.878 737.034,599.899 741.222,585.647C749.146,600.181 763.578,613.426 774.302,621.383C846.195,674.7 939.765,703.895 1024.78,727.864C1104.99,750.479 1193.8,771.458 1277.76,764.012C1288.71,763.039 1305.51,759.887 1318.61,753.072C1309.05,779.352 1292.23,796.434 1258.84,799.394ZM1205.85,846.903C1217.73,839.544 1226.21,826.458 1228.36,812.546C1233.83,812.681 1239.3,812.684 1244.77,812.534C1240.28,832.916 1223.71,844.307 1205.85,846.903ZM1153.41,805.851C1173.14,808.595 1192.94,810.707 1212.78,811.894C1215.9,812.08 1219.03,812.243 1222.18,812.369C1219.3,829.184 1205.67,844.718 1188.47,846.675C1169.44,843.312 1153.14,829.626 1153.41,805.851ZM1006.01,810.65C1019.33,805.455 1031.16,795.016 1035.63,781.81C1040.07,782.976 1044.52,784.124 1048.98,785.238C1041.53,805.223 1023.71,812.57 1006.01,810.65ZM961.087,760.181C975.05,764.593 989.038,768.841 1003,772.874C1011.88,775.437 1020.8,777.91 1029.76,780.301C1024.71,794.869 1008.36,805.587 993.376,807.699C974.401,800.794 958.792,783.405 961.087,760.181ZM805.585,737.471C821.153,736.245 836.956,728.811 846.451,716.849C850.741,718.82 855.074,720.704 859.407,722.597C847.68,741.491 825.871,745.425 805.585,737.471ZM778.106,680.578C785.753,685.32 793.557,689.797 801.333,694.121C814.179,701.266 827.361,707.838 840.706,714.112C829.66,726.999 810.026,733.673 793.557,730.915C777.673,719.241 772.073,699.986 778.106,680.578ZM765.871,544.569C759.566,552.108 757.024,561.533 762.869,572.997C775.3,597.387 802.46,611.792 825.387,624.562C887.851,659.358 956.543,683.415 1025.12,702.91C1087.8,720.725 1152.47,734.791 1217.54,739.803C1242.19,741.699 1319.2,746.038 1319.87,709.004C1322.6,714.064 1324.46,719.349 1325.17,724.884C1325.4,726.705 1325.34,728.393 1325.07,729.989C1325.02,730.169 1324.9,730.278 1324.86,730.47C1324.7,731.242 1324.52,731.972 1324.36,732.736C1315.65,756.314 1249.84,753.213 1232.87,752.639C1163.69,750.307 1094.53,734.298 1028.05,715.996C961.174,697.588 895.008,674.091 833.167,642.516C809.299,630.328 785.979,616.335 765.588,598.865C746.225,582.276 746.43,557.315 765.871,544.569ZM815.934,535.869C837.688,535.272 859.512,537.363 881.12,539.911C875.092,555.95 873.133,572.122 880.194,585.241C894.206,611.266 929.984,626.635 955.215,638.147C1021.8,668.532 1107.95,696.032 1182.06,685.782C1210.07,681.909 1218.87,665.587 1222.72,641.362C1247.46,653.243 1287.83,671.029 1309.89,695.22C1315.2,704.86 1315.59,715.788 1304.37,723.619C1295.07,730.121 1282.22,732.122 1271.23,733.538C1251.39,736.086 1230.96,734.782 1211.12,733.135C1154.66,728.445 1098.65,716.23 1044,701.714C982.758,685.449 922.358,664.767 864.96,637.843C840.333,626.293 815.438,613.604 793.416,597.534C782.98,589.92 772.505,580.194 767.424,568.087C761.391,553.712 772.298,543.949 784.179,537.663C794.558,535.858 806.144,536.14 815.934,535.869ZM1021.22,602.147C1025.62,608.664 1031.56,614.13 1039.43,617.946C1050.1,623.123 1060.88,622.303 1071.01,617.883C1074.28,630.836 1082.21,641.089 1093.08,649.749C1098.73,654.247 1105.07,657.486 1111.53,660.629C1118.96,664.244 1123.03,668.652 1126.72,674.217C1076.8,669.755 1025.96,653.249 980.829,635.686C971.363,632.002 961.784,628.003 952.361,623.586C960.844,613.601 980.423,616.981 992.063,616.068C1003.85,615.145 1014.25,611.269 1021.22,602.147ZM1041.99,605.551C1018.79,594.298 1020.66,555.872 1024.27,534.65C1029.64,508.718 1047.78,488.333 1076.05,493.024C1103.59,497.594 1116.47,524.145 1110.98,549.734C1105.42,575.638 1071.52,619.869 1041.99,605.551ZM1161,484.884C1195.83,516.392 1213.09,562.372 1213.45,608.619C1213.78,652.044 1206.64,673.06 1164.58,675.134C1157.03,675.506 1149.41,675.515 1141.76,675.22C1135.02,663.763 1130.38,656.449 1117.74,650.001C1101.64,641.786 1084.73,630.95 1082.11,611.509C1100.87,598.096 1116,574.033 1121.72,557.101C1132.73,524.481 1114.99,491.182 1082.27,481.819C1047,471.729 1019.15,498.793 1012.41,531.38C1009.32,549.496 1008.43,571.789 1015.12,589.962C1014.39,590.446 1013.72,591.101 1013.19,592.035C998.767,617.348 957.929,593.297 941.237,618.111C927.367,610.911 914.122,602.582 902.508,592.522C870.095,564.445 904.032,516.398 926.042,490.882C991.153,424.598 1092.27,422.715 1161,484.884ZM1336.56,717.778C1322.2,673.033 1262.71,647.402 1224.41,628.541C1224.37,628.523 1224.34,628.531 1224.31,628.514C1229.62,573.072 1212.96,521.591 1174.6,480.975C1104.6,406.843 986.841,411.428 917.34,482.179C907.959,493.051 895.162,510.013 886.222,528.174C843.809,522.871 782.602,512.122 747.379,541.993C739.194,548.934 735.75,556.642 735.459,564.514C726.469,590.632 716.243,626.449 736.775,648.186C745.94,657.885 756.417,666.218 767.499,673.739C755.895,703.727 768.773,733.027 797.28,747.276C823.815,760.539 855.985,753.559 870.78,727.516C896.483,738.276 922.767,747.796 949.251,756.423C945.149,786.966 961.748,811.69 991.769,820.78C1020.48,829.475 1050.92,816.209 1060.95,788.165C1087.5,794.52 1114.31,799.914 1141.28,804.064C1141.23,804.352 1141.1,804.572 1141.09,804.884C1140.09,837.113 1165.14,857.122 1195.41,860.257C1227.39,863.562 1251.72,841.72 1257.23,811.879C1267.61,811.062 1277.9,809.556 1287.94,806.963C1318.55,799.061 1330.4,763.264 1336.25,735.939C1338.37,730.776 1338.81,724.8 1336.56,717.778Z" style="fill:rgb(44,45,44);fill-rule:nonzero;"/>
        </g>
        <g transform="matrix(0.365808,0,0,0.365808,39.6008,41.9629)">
            <path d="M1072.37,568.523C1069.76,563.553 1070.91,556.554 1074.8,552.648C1078.04,549.653 1081.29,546.669 1084.8,543.979C1086.79,542.447 1091.72,538.288 1094.52,539.511C1097.93,540.992 1096.26,549.634 1095.68,552.119C1094.36,557.832 1090.75,562.877 1086.91,567.164C1082.63,571.948 1076.1,575.599 1072.37,568.523ZM1098.93,535.139C1090.86,527.044 1075.58,543.547 1070.45,548.297C1064.02,554.755 1063.22,565.449 1067.92,573.141C1073.94,583.003 1084.94,578.027 1091.26,571.515C1098.91,563.64 1108.76,545.016 1098.93,535.139Z" style="fill:rgb(44,45,44);fill-rule:nonzero;"/>
        </g>
        <g transform="matrix(0.365808,0,0,0.365808,39.6008,41.9629)">
            <path d="M1049.56,561.317C1043.83,565.476 1039.86,561.134 1038.15,555.485C1035.36,546.308 1036.02,532.186 1044.38,525.911C1049.69,521.927 1054.81,544.148 1055.59,547.168C1056.76,552.54 1053.89,558.168 1049.56,561.317ZM1043.84,519.424C1038.57,520.392 1034.49,527.546 1032.89,532.035C1030.16,539.713 1030.25,547.778 1031.86,555.695C1033.64,564.53 1041.09,572.444 1050.47,567.871C1058.6,563.91 1063.45,554.382 1061.52,545.533C1059.43,537.465 1055.99,517.189 1043.84,519.424Z" style="fill:rgb(44,45,44);fill-rule:nonzero;"/>
        </g>
        <g transform="matrix(0.365808,0,0,0.365808,39.6008,41.9629)">
            <path d="M1423.56,755.812C1423.12,762.723 1425.38,769.418 1426.83,776.077C1426.99,776.852 1428.21,776.918 1428.4,776.119C1429.67,770.734 1433.02,763.006 1434.09,755.884C1436.59,739.172 1424.57,739.887 1423.56,755.812Z" style="fill:rgb(44,45,44);fill-rule:nonzero;"/>
        </g>
        <g transform="matrix(0.365808,0,0,0.365808,39.6008,41.9629)">
            <path d="M1432.45,823.944C1432.89,817.026 1430.62,810.338 1429.18,803.673C1429.02,802.898 1427.8,802.838 1427.61,803.631C1426.33,809.022 1422.99,816.744 1421.92,823.865C1419.42,840.584 1431.44,839.869 1432.45,823.944Z" style="fill:rgb(44,45,44);fill-rule:nonzero;"/>
        </g>
        <g transform="matrix(0.365808,0,0,0.365808,39.6008,41.9629)">
            <path d="M1462.07,785.434C1455.16,784.989 1448.46,787.255 1441.8,788.697C1441.03,788.859 1440.97,790.079 1441.76,790.272C1447.14,791.546 1454.87,794.893 1462,795.963C1478.71,798.463 1478,786.437 1462.07,785.434Z" style="fill:rgb(44,45,44);fill-rule:nonzero;"/>
        </g>
        <g transform="matrix(0.365808,0,0,0.365808,39.6008,41.9629)">
            <path d="M1393.94,794.316C1400.85,794.76 1407.55,792.495 1414.21,791.053C1414.98,790.89 1415.04,789.671 1414.25,789.478C1408.86,788.204 1401.14,784.857 1394.01,783.787C1377.3,781.287 1378.01,793.312 1393.94,794.316Z" style="fill:rgb(44,45,44);fill-rule:nonzero;"/>
        </g>
        <g transform="matrix(0.365808,0,0,0.365808,39.6008,41.9629)">
            <path d="M1442.39,771.179C1438.81,774.322 1436.66,778.673 1434.13,782.603C1433.83,783.06 1434.39,783.685 1434.87,783.39C1438.11,781.395 1443.49,779.274 1447.46,776.329C1456.79,769.436 1450.6,763.944 1442.39,771.179Z" style="fill:rgb(44,45,44);fill-rule:nonzero;"/>
        </g>
        <g transform="matrix(0.365808,0,0,0.365808,39.6008,41.9629)">
            <path d="M1413.62,808.565C1417.2,805.428 1419.35,801.077 1421.88,797.147C1422.17,796.69 1421.62,796.065 1421.14,796.359C1417.9,798.354 1412.52,800.476 1408.55,803.421C1399.22,810.32 1405.41,815.806 1413.62,808.565Z" style="fill:rgb(44,45,44);fill-rule:nonzero;"/>
        </g>
        <g transform="matrix(0.365808,0,0,0.365808,39.6008,41.9629)">
            <path d="M1446.7,804.256C1443.56,800.68 1439.21,798.535 1435.28,795.999C1434.82,795.698 1434.19,796.269 1434.49,796.744C1436.48,799.977 1438.6,805.35 1441.54,809.328C1448.44,818.655 1453.94,812.471 1446.7,804.256Z" style="fill:rgb(44,45,44);fill-rule:nonzero;"/>
        </g>
        <g transform="matrix(0.365808,0,0,0.365808,39.6008,41.9629)">
            <path d="M1409.31,775.494C1412.46,779.07 1416.8,781.215 1420.73,783.751C1421.19,784.051 1421.81,783.481 1421.52,783.006C1419.52,779.773 1417.4,774.4 1414.46,770.422C1407.57,761.095 1402.07,767.279 1409.31,775.494Z" style="fill:rgb(44,45,44);fill-rule:nonzero;"/>
        </g>
    </g>
</svg>
