<?xml version="1.0" encoding="UTF-8" standalone="no"?>
<!DOCTYPE svg PUBLIC "-//W3C//DTD SVG 1.1//EN" "http://www.w3.org/Graphics/SVG/1.1/DTD/svg11.dtd">
<svg width="100%" height="100%" viewBox="0 0 620 309" version="1.1" xmlns="http://www.w3.org/2000/svg" xmlns:xlink="http://www.w3.org/1999/xlink" xml:space="preserve" xmlns:serif="http://www.serif.com/" style="fill-rule:evenodd;clip-rule:evenodd;stroke-linejoin:round;stroke-miterlimit:2;">
    <g transform="matrix(1.72064,0,0,1.68727,-426.785,-221.296)">
        <path d="M601.395,163.233L411.377,180.989L355,272L550.838,272L601.395,163.233Z" style="fill:rgb(51,51,51);"/>
    </g>
    <g transform="matrix(13.2091,0,0,13.2091,-3591.63,-3184.87)">
        <path d="M288.549,254.131C288.549,253.623 288.625,253.088 288.777,252.525C288.977,251.771 289.28,251.117 289.688,250.563C290.097,250.008 290.611,249.569 291.232,249.247C291.854,248.925 292.561,248.764 293.354,248.764C294.416,248.764 295.274,249.094 295.929,249.754C296.583,250.414 296.91,251.289 296.91,252.379C296.91,253.285 296.697,254.162 296.271,255.01C295.846,255.857 295.268,256.51 294.537,256.967C293.807,257.424 292.98,257.652 292.059,257.652C291.258,257.652 290.586,257.471 290.043,257.107C289.5,256.744 289.115,256.294 288.889,255.757C288.662,255.22 288.549,254.678 288.549,254.131ZM290.295,254.096C290.295,254.686 290.475,255.18 290.834,255.578C291.193,255.977 291.666,256.176 292.252,256.176C292.729,256.176 293.187,256.019 293.626,255.704C294.065,255.39 294.429,254.913 294.716,254.274C295.003,253.636 295.146,253.014 295.146,252.408C295.146,251.732 294.965,251.202 294.602,250.817C294.238,250.433 293.775,250.24 293.213,250.24C292.35,250.24 291.647,250.643 291.106,251.447C290.565,252.252 290.295,253.135 290.295,254.096Z" style="fill:white;fill-rule:nonzero;"/>
        <path d="M304.193,257.5L302.547,257.5L300.227,251.729L298.514,259.143L296.868,259.143L299.166,248.91L300.818,248.91L303.145,254.658L304.598,246.383L306.239,246.257L304.193,257.5Z" style="fill:white;fill-rule:nonzero;"/>
        <path d="M305.992,257.5L307.785,248.91L313.775,248.91L313.224,250.346L309.256,250.346L308.846,252.297L312.535,252.297L311.983,253.732L308.547,253.732L308.008,256.064L311.363,256.064L310.806,257.5L305.992,257.5Z" style="fill:white;fill-rule:nonzero;"/>
    </g>
    <g transform="matrix(1.66912,0,0,1.66912,-390.135,-229.714)">
        <path d="M302,155L409,155L323,289L561,289L540,317L265,308L382,170L322,175L302,155Z" style="fill:rgb(125,71,187);"/>
    </g>
    <g transform="matrix(1,0,0,1,-99,-136)">
        <clipPath id="_clip1">
            <path d="M108,164L183,168L232,198L268,210L293,210L304,216L213,329L150,393L87,336C87,336 38.654,177.427 108,164Z"/>
        </clipPath>
        <g clip-path="url(#_clip1)">
            <g transform="matrix(3.67814,0,0,3.67814,-881.061,-633.837)">
                <path d="M290.594,256.557L290.746,257.488C290.449,257.551 290.184,257.582 289.949,257.582C289.566,257.582 289.27,257.521 289.059,257.4C288.848,257.279 288.699,257.12 288.613,256.923C288.527,256.726 288.484,256.311 288.484,255.678L288.484,252.098L287.711,252.098L287.711,251.277L288.484,251.277L288.484,249.736L289.533,249.104L289.533,251.277L290.594,251.277L290.594,252.098L289.533,252.098L289.533,255.736C289.533,256.037 289.552,256.23 289.589,256.316C289.626,256.402 289.687,256.471 289.771,256.521C289.854,256.572 289.975,256.598 290.131,256.598C290.248,256.598 290.402,256.584 290.594,256.557Z" style="fill:rgb(51,51,51);fill-rule:nonzero;"/>
                <path d="M291.625,257.5L291.625,248.91L292.68,248.91L292.68,251.992C293.172,251.422 293.793,251.137 294.543,251.137C295.004,251.137 295.404,251.228 295.744,251.409C296.084,251.591 296.327,251.842 296.474,252.162C296.62,252.482 296.693,252.947 296.693,253.557L296.693,257.5L295.639,257.5L295.639,253.557C295.639,253.029 295.524,252.646 295.296,252.405C295.067,252.165 294.744,252.045 294.326,252.045C294.014,252.045 293.72,252.126 293.444,252.288C293.169,252.45 292.973,252.67 292.855,252.947C292.738,253.225 292.68,253.607 292.68,254.096L292.68,257.5L291.625,257.5Z" style="fill:rgb(51,51,51);fill-rule:nonzero;"/>
                <path d="M302.559,255.496L303.648,255.631C303.477,256.268 303.158,256.762 302.693,257.113C302.229,257.465 301.635,257.641 300.912,257.641C300.002,257.641 299.28,257.36 298.747,256.8C298.214,256.239 297.947,255.453 297.947,254.441C297.947,253.395 298.217,252.582 298.756,252.004C299.295,251.426 299.994,251.137 300.854,251.137C301.686,251.137 302.365,251.42 302.893,251.986C303.42,252.553 303.684,253.35 303.684,254.377C303.684,254.439 303.682,254.533 303.678,254.658L299.037,254.658C299.076,255.342 299.27,255.865 299.617,256.229C299.965,256.592 300.398,256.773 300.918,256.773C301.305,256.773 301.635,256.672 301.908,256.469C302.182,256.266 302.398,255.941 302.559,255.496ZM299.096,253.791L302.57,253.791C302.523,253.268 302.391,252.875 302.172,252.613C301.836,252.207 301.4,252.004 300.865,252.004C300.381,252.004 299.974,252.166 299.644,252.49C299.313,252.814 299.131,253.248 299.096,253.791Z" style="fill:rgb(51,51,51);fill-rule:nonzero;"/>
            </g>
            <g transform="matrix(8.74867,0,0,8.74867,-2404.24,-1976.4)">
                <rect x="288.619" y="248.91" width="1.137" height="8.59" style="fill:rgb(51,51,51);fill-rule:nonzero;"/>
                <path d="M291.625,257.5L291.625,251.277L292.574,251.277L292.574,252.162C293.031,251.479 293.691,251.137 294.555,251.137C294.93,251.137 295.274,251.204 295.589,251.339C295.903,251.474 296.139,251.65 296.295,251.869C296.451,252.088 296.561,252.348 296.623,252.648C296.662,252.844 296.682,253.186 296.682,253.674L296.682,257.5L295.627,257.5L295.627,253.715C295.627,253.285 295.586,252.964 295.504,252.751C295.422,252.538 295.276,252.368 295.067,252.241C294.858,252.114 294.613,252.051 294.332,252.051C293.883,252.051 293.495,252.193 293.169,252.479C292.843,252.764 292.68,253.305 292.68,254.102L292.68,257.5L291.625,257.5Z" style="fill:rgb(51,51,51);fill-rule:nonzero;"/>
                <path d="M300.602,256.557L300.754,257.488C300.457,257.551 300.191,257.582 299.957,257.582C299.574,257.582 299.277,257.521 299.066,257.4C298.855,257.279 298.707,257.12 298.621,256.923C298.535,256.726 298.492,256.311 298.492,255.678L298.492,252.098L297.719,252.098L297.719,251.277L298.492,251.277L298.492,249.736L299.541,249.104L299.541,251.277L300.602,251.277L300.602,252.098L299.541,252.098L299.541,255.736C299.541,256.037 299.56,256.23 299.597,256.316C299.634,256.402 299.694,256.471 299.778,256.521C299.862,256.572 299.982,256.598 300.139,256.598C300.256,256.598 300.41,256.584 300.602,256.557Z" style="fill:rgb(51,51,51);fill-rule:nonzero;"/>
                <path d="M301.24,254.389C301.24,253.236 301.561,252.383 302.201,251.828C302.736,251.367 303.389,251.137 304.158,251.137C305.014,251.137 305.713,251.417 306.256,251.978C306.799,252.538 307.07,253.313 307.07,254.301C307.07,255.102 306.95,255.731 306.71,256.19C306.47,256.649 306.12,257.006 305.661,257.26C305.202,257.514 304.701,257.641 304.158,257.641C303.287,257.641 302.583,257.361 302.046,256.803C301.509,256.244 301.24,255.439 301.24,254.389ZM302.324,254.389C302.324,255.186 302.498,255.782 302.846,256.179C303.193,256.575 303.631,256.773 304.158,256.773C304.682,256.773 305.117,256.574 305.465,256.176C305.813,255.777 305.986,255.17 305.986,254.354C305.986,253.584 305.812,253.001 305.462,252.604C305.112,252.208 304.678,252.01 304.158,252.01C303.631,252.01 303.193,252.207 302.846,252.602C302.498,252.996 302.324,253.592 302.324,254.389Z" style="fill:rgb(51,51,51);fill-rule:nonzero;"/>
            </g>
        </g>
    </g>
</svg>
